<svg xmlns="http://www.w3.org/2000/svg" xmlns:xlink="http://www.w3.org/1999/xlink" id="svg" width="400" height="400" viewBox="0, 0, 400,400"><g id="svgg"><path id="path0" d="M322.167 83.866 C 320.087 85.471,310.163 93.103,299.508 101.292 C 296.183 103.847,292.982 106.310,287.833 110.272 C 286.046 111.648,283.121 113.898,281.333 115.272 C 279.546 116.646,275.271 119.937,271.833 122.585 C 268.396 125.233,264.158 128.495,262.417 129.834 C 260.675 131.174,250.588 138.936,240.000 147.085 C 229.412 155.233,216.115 165.466,210.450 169.825 C 204.786 174.184,200.083 177.750,200.000 177.750 C 199.916 177.750,195.176 174.154,189.466 169.760 C 174.342 158.121,128.298 122.689,124.500 119.767 C 122.712 118.392,119.833 116.176,118.101 114.842 C 116.369 113.508,113.586 111.367,111.916 110.083 C 109.093 107.913,106.658 106.041,98.914 100.083 C 97.246 98.800,94.321 96.550,92.414 95.083 C 90.507 93.617,87.553 91.342,85.849 90.029 C 84.144 88.716,82.013 87.084,81.113 86.404 L 79.476 85.167 74.280 85.172 C 65.049 85.180,62.281 85.614,57.674 87.773 C 50.599 91.088,44.825 98.260,43.334 105.583 C 43.222 106.133,43.045 106.689,42.940 106.817 C 42.683 107.133,42.571 291.470,42.826 294.346 C 43.167 298.196,44.291 301.647,46.279 304.947 C 46.676 305.605,47.000 306.199,47.000 306.266 C 47.000 306.333,47.114 306.507,47.254 306.653 C 47.393 306.798,47.729 307.217,48.000 307.583 C 48.725 308.564,49.657 309.638,50.448 310.406 C 51.499 311.426,52.830 312.575,53.049 312.652 C 53.156 312.689,53.345 312.821,53.468 312.944 C 54.357 313.833,57.883 315.707,60.101 316.469 C 64.092 317.841,65.591 318.000,74.498 318.000 L 82.000 318.000 82.042 228.812 L 82.083 139.625 93.750 148.443 C 100.167 153.293,111.417 161.793,118.750 167.332 C 126.083 172.872,135.657 180.107,140.026 183.410 C 144.394 186.714,151.669 192.210,156.192 195.624 C 165.194 202.418,184.719 217.165,194.069 224.232 L 199.998 228.714 206.541 223.774 C 210.139 221.057,218.570 214.690,225.277 209.625 C 231.983 204.561,242.884 196.329,249.501 191.333 C 256.118 186.338,263.269 180.935,265.391 179.329 C 267.513 177.722,277.237 170.376,287.000 163.006 C 308.601 146.696,312.956 143.405,315.750 141.279 L 317.917 139.630 317.958 228.824 L 318.000 318.019 325.875 317.949 C 330.206 317.910,333.938 317.838,334.167 317.788 C 334.396 317.739,334.978 317.651,335.460 317.594 C 335.942 317.537,336.505 317.427,336.710 317.348 C 336.915 317.270,337.140 317.199,337.209 317.190 C 338.161 317.061,340.883 316.111,342.363 315.391 C 343.034 315.064,343.621 314.794,343.667 314.791 C 343.712 314.788,344.030 314.608,344.372 314.392 C 344.714 314.177,345.066 314.000,345.155 314.000 C 345.244 314.000,345.377 313.906,345.450 313.791 C 345.629 313.510,346.770 312.667,346.971 312.667 C 347.059 312.667,347.174 312.554,347.227 312.417 C 347.280 312.279,347.419 312.165,347.536 312.163 C 347.654 312.161,347.974 311.899,348.248 311.580 C 348.523 311.261,348.809 311.000,348.885 311.000 C 348.961 311.000,349.337 310.652,349.720 310.226 C 350.103 309.800,350.604 309.254,350.833 309.013 C 351.249 308.576,352.193 307.366,352.667 306.663 C 352.804 306.459,353.016 306.189,353.137 306.063 C 353.258 305.937,353.313 305.833,353.260 305.833 C 353.127 305.833,354.004 304.447,354.233 304.294 C 354.334 304.227,354.367 304.171,354.306 304.169 C 354.245 304.168,354.413 303.716,354.680 303.166 C 354.946 302.616,355.166 302.129,355.168 302.084 C 355.170 302.039,355.316 301.745,355.492 301.430 C 355.669 301.116,355.864 300.590,355.925 300.263 C 355.987 299.935,356.094 299.667,356.164 299.667 C 356.233 299.667,356.285 299.535,356.279 299.375 C 356.274 299.215,356.367 298.746,356.486 298.333 C 356.606 297.921,356.727 297.433,356.756 297.250 C 356.785 297.067,356.904 296.504,357.021 296.000 C 357.273 294.904,357.435 105.338,357.184 104.861 C 357.051 104.609,356.848 103.600,356.759 102.750 C 356.720 102.375,356.064 100.124,355.821 99.529 C 355.734 99.316,355.705 99.072,355.758 98.988 C 355.810 98.903,355.780 98.833,355.690 98.833 C 355.601 98.833,355.396 98.477,355.236 98.042 C 355.076 97.606,354.888 97.185,354.819 97.105 C 354.749 97.025,354.737 96.844,354.791 96.702 C 354.846 96.560,354.819 96.489,354.730 96.544 C 354.594 96.628,354.121 95.844,354.155 95.589 C 354.161 95.540,354.047 95.369,353.901 95.208 C 353.447 94.710,351.857 92.200,351.931 92.097 C 351.969 92.044,351.953 92.035,351.895 92.078 C 351.749 92.185,351.070 91.296,351.139 91.087 C 351.169 90.993,351.149 90.962,351.093 91.018 C 351.037 91.074,350.421 90.534,349.725 89.818 C 349.028 89.102,348.169 88.316,347.815 88.071 C 347.454 87.820,347.219 87.543,347.280 87.438 C 347.339 87.334,347.332 87.299,347.264 87.360 C 347.148 87.463,344.749 85.987,344.125 85.428 C 343.965 85.284,343.815 85.181,343.792 85.199 C 343.679 85.287,342.702 84.745,342.771 84.633 C 342.815 84.562,342.744 84.545,342.613 84.595 C 342.483 84.645,342.273 84.588,342.146 84.468 C 342.020 84.348,341.767 84.224,341.583 84.192 C 341.400 84.161,341.149 84.052,341.025 83.950 C 340.902 83.849,340.643 83.741,340.449 83.712 C 340.256 83.682,340.039 83.566,339.968 83.454 C 339.897 83.342,339.837 83.299,339.836 83.360 C 339.834 83.459,339.424 83.362,337.500 82.809 C 337.179 82.717,336.785 82.643,336.625 82.644 C 336.465 82.645,336.333 82.594,336.333 82.531 C 336.333 82.468,335.977 82.394,335.542 82.366 C 335.106 82.338,334.487 82.258,334.167 82.188 C 333.846 82.118,331.558 82.047,329.083 82.030 L 324.583 82.000 322.167 83.866 " stroke="none" fill="#d03b3b" fill-rule="evenodd"></path><path id="path1" d="M75.758 82.145 C 75.845 82.225,77.417 83.439,79.250 84.843 C 81.083 86.246,83.558 88.145,84.750 89.063 C 85.942 89.980,95.204 97.104,105.333 104.893 C 115.462 112.683,124.162 119.382,124.667 119.781 C 125.171 120.180,126.858 121.484,128.417 122.680 C 131.050 124.701,133.258 126.397,141.088 132.417 C 142.758 133.700,145.540 135.840,147.270 137.173 C 150.841 139.923,155.376 143.413,160.250 147.162 C 162.083 148.573,165.046 150.851,166.833 152.226 C 168.621 153.601,171.546 155.851,173.333 157.226 C 175.121 158.601,178.008 160.823,179.750 162.163 C 181.492 163.503,184.379 165.725,186.167 167.100 C 187.954 168.475,191.742 171.392,194.583 173.583 C 197.425 175.774,199.862 177.566,200.000 177.566 C 200.137 177.566,205.987 173.148,213.000 167.749 C 220.012 162.349,226.975 156.991,228.472 155.841 C 229.968 154.691,232.410 152.813,233.898 151.667 C 235.386 150.521,238.023 148.491,239.760 147.156 C 243.065 144.615,247.522 141.184,252.583 137.286 C 254.233 136.015,257.113 133.800,258.982 132.363 C 260.851 130.926,263.746 128.700,265.414 127.417 C 267.082 126.133,269.978 123.907,271.849 122.469 C 273.719 121.032,276.450 118.932,277.917 117.803 C 279.383 116.674,280.781 115.600,281.022 115.417 C 281.263 115.233,282.724 114.108,284.269 112.917 C 285.814 111.725,287.342 110.550,287.664 110.306 C 288.550 109.634,293.846 105.549,294.417 105.097 C 294.692 104.879,296.154 103.754,297.667 102.597 C 299.179 101.439,300.642 100.315,300.917 100.097 C 301.192 99.880,302.617 98.780,304.083 97.654 C 305.550 96.528,308.212 94.481,310.000 93.105 C 313.056 90.752,319.056 86.147,320.019 85.415 C 320.603 84.970,323.840 82.469,324.161 82.214 C 324.362 82.054,297.832 82.009,200.008 82.005 C 129.259 82.002,75.668 82.063,75.758 82.145 M308.030 147.234 C 302.775 151.201,298.350 154.553,298.196 154.684 C 298.042 154.815,297.654 155.104,297.333 155.328 C 297.012 155.551,296.712 155.780,296.667 155.836 C 296.621 155.891,292.158 159.265,286.750 163.333 C 273.210 173.517,273.593 173.227,273.500 173.336 C 273.454 173.389,273.154 173.613,272.833 173.833 C 272.512 174.054,272.212 174.280,272.167 174.337 C 272.121 174.393,267.358 177.992,261.583 182.334 C 255.808 186.676,251.046 190.275,251.000 190.331 C 250.954 190.387,250.654 190.615,250.333 190.837 C 249.644 191.314,249.590 191.356,248.833 191.999 C 248.512 192.272,248.199 192.496,248.137 192.497 C 248.075 192.499,247.925 192.597,247.804 192.717 C 247.682 192.836,243.308 196.150,238.083 200.082 C 232.858 204.013,228.546 207.276,228.500 207.331 C 228.454 207.387,228.154 207.615,227.833 207.837 C 227.144 208.314,227.090 208.356,226.333 208.999 C 226.012 209.272,225.699 209.496,225.637 209.497 C 225.575 209.499,225.425 209.597,225.304 209.716 C 225.182 209.835,220.808 213.148,215.583 217.080 C 210.358 221.011,206.046 224.270,206.000 224.323 C 205.954 224.375,205.610 224.625,205.236 224.879 C 204.862 225.133,204.412 225.472,204.236 225.633 C 204.060 225.794,203.654 226.108,203.333 226.330 C 203.012 226.552,202.713 226.781,202.667 226.838 C 201.714 228.021,199.581 228.998,199.306 228.377 C 199.275 228.307,198.944 228.042,198.569 227.788 C 198.195 227.534,197.745 227.197,197.569 227.038 C 197.394 226.880,196.944 226.542,196.569 226.288 C 196.195 226.034,195.742 225.697,195.563 225.538 C 195.024 225.061,194.191 224.500,194.021 224.500 C 193.934 224.500,189.949 228.412,185.167 233.194 L 176.471 241.888 129.319 194.736 L 82.167 147.584 82.167 231.125 L 82.167 314.667 200.000 314.667 L 317.833 314.667 317.833 227.333 C 317.833 179.300,317.777 140.005,317.708 140.011 C 317.640 140.017,313.284 143.267,308.030 147.234 " stroke="none" fill="#f1f1f1" fill-rule="evenodd"></path><path id="path2" d="M82.167 143.697 L 82.167 147.584 129.319 194.736 L 176.472 241.888 185.081 233.279 C 189.815 228.544,193.798 224.610,193.930 224.536 C 194.103 224.439,192.540 223.172,188.293 219.970 C 185.061 217.533,181.742 215.021,180.917 214.388 C 180.092 213.755,174.692 209.681,168.917 205.335 C 163.142 200.989,158.333 197.354,158.231 197.258 C 158.129 197.162,152.992 193.277,146.815 188.625 C 140.637 183.972,134.871 179.619,134.000 178.951 C 133.129 178.284,127.692 174.181,121.917 169.835 C 116.142 165.489,111.333 161.854,111.231 161.758 C 111.129 161.662,105.992 157.776,99.815 153.123 C 93.637 148.469,87.346 143.718,85.833 142.564 C 84.321 141.411,82.877 140.319,82.625 140.139 L 82.167 139.811 82.167 143.697 M317.890 313.250 C 317.891 313.983,317.920 314.263,317.956 313.871 C 317.991 313.479,317.990 312.879,317.954 312.537 C 317.919 312.196,317.890 312.517,317.890 313.250 M82.167 316.333 L 82.167 318.000 200.000 318.000 L 317.833 318.000 317.833 316.333 L 317.833 314.667 200.000 314.667 L 82.167 314.667 82.167 316.333 " stroke="none" fill="#dcdbdb" fill-rule="evenodd"></path><path id="path3" d="M64.333 82.329 C 61.657 82.810,60.524 83.165,57.917 84.336 C 56.940 84.776,54.335 86.251,53.750 86.696 C 49.376 90.026,46.242 93.945,44.646 98.083 C 44.469 98.542,44.258 99.067,44.177 99.250 C 43.679 100.379,43.042 103.071,42.836 104.917 C 42.672 106.393,42.633 108.489,42.790 107.417 C 42.830 107.142,42.923 106.842,42.997 106.750 C 43.070 106.658,43.222 106.133,43.334 105.583 C 44.825 98.260,50.599 91.088,57.674 87.773 C 62.327 85.592,65.529 85.108,74.703 85.200 C 78.368 85.237,79.602 85.201,79.453 85.063 C 79.341 84.960,78.399 84.229,77.358 83.438 L 75.466 82.000 70.692 82.023 C 66.999 82.040,65.558 82.110,64.333 82.329 M332.542 82.115 C 332.702 82.157,332.965 82.157,333.125 82.115 C 333.285 82.073,333.154 82.039,332.833 82.039 C 332.512 82.039,332.381 82.073,332.542 82.115 M338.167 82.975 C 338.304 83.056,338.642 83.170,338.917 83.230 C 339.237 83.299,339.327 83.285,339.167 83.191 C 339.029 83.111,338.692 82.996,338.417 82.937 C 338.097 82.868,338.007 82.881,338.167 82.975 M342.333 84.583 C 342.563 84.714,342.825 84.822,342.917 84.822 C 343.008 84.822,342.896 84.714,342.667 84.583 C 342.438 84.452,342.175 84.345,342.083 84.345 C 341.992 84.345,342.104 84.452,342.333 84.583 M344.083 85.454 C 344.175 85.542,344.550 85.782,344.917 85.988 C 345.283 86.194,345.433 86.237,345.250 86.085 C 344.878 85.775,343.822 85.205,344.083 85.454 M345.750 86.446 C 346.190 86.872,348.221 88.391,348.111 88.212 C 348.042 88.100,347.557 87.682,347.034 87.284 C 346.086 86.561,345.420 86.126,345.750 86.446 M349.676 89.750 C 351.273 91.445,352.314 92.770,353.246 94.294 C 353.597 94.869,353.916 95.307,353.955 95.268 C 354.211 95.011,351.123 90.994,349.392 89.333 C 348.428 88.408,348.470 88.469,349.676 89.750 M355.096 97.667 C 355.157 97.896,355.276 98.196,355.361 98.333 C 355.469 98.507,355.482 98.456,355.404 98.167 C 355.343 97.938,355.224 97.638,355.139 97.500 C 355.031 97.326,355.018 97.377,355.096 97.667 M356.104 100.417 C 356.163 100.692,356.278 101.029,356.358 101.167 C 356.452 101.327,356.466 101.237,356.396 100.917 C 356.337 100.642,356.222 100.304,356.142 100.167 C 356.048 100.007,356.034 100.097,356.104 100.417 M356.690 102.667 C 356.690 102.804,356.755 103.067,356.833 103.250 C 356.924 103.460,356.977 103.491,356.977 103.333 C 356.977 103.196,356.912 102.933,356.833 102.750 C 356.743 102.540,356.690 102.509,356.690 102.667 M357.209 106.417 C 357.211 106.783,357.245 106.914,357.285 106.706 C 357.324 106.499,357.323 106.199,357.281 106.040 C 357.239 105.880,357.207 106.050,357.209 106.417 " stroke="none" fill="#dca9a9" fill-rule="evenodd"></path><path id="path4" d="M317.916 225.833 C 317.916 273.271,317.935 292.677,317.958 268.958 C 317.982 245.240,317.982 206.427,317.958 182.708 C 317.935 158.990,317.916 178.396,317.916 225.833 M82.083 228.917 C 82.083 277.958,82.102 298.046,82.125 273.555 C 82.148 249.065,82.148 208.940,82.125 184.389 C 82.102 159.837,82.083 179.875,82.083 228.917 M317.896 316.250 C 317.896 317.258,317.924 317.649,317.957 317.119 C 317.990 316.588,317.990 315.763,317.956 315.286 C 317.922 314.808,317.895 315.242,317.896 316.250 " stroke="none" fill="#ebc4c4" fill-rule="evenodd"></path></g></svg>